<?xml version="1.0" encoding="UTF-8"?>
<svg id="Calque_1" xmlns="http://www.w3.org/2000/svg" version="1.1" viewBox="0 0 1665.1 253">
  <!-- Generator: Adobe Illustrator 29.2.1, SVG Export Plug-In . SVG Version: 2.1.0 Build 116)  -->
  <defs>
    <style>
      .st0 {
        fill: #1d1d1b;
      }
    </style>
  </defs>
  <path class="st0" d="M1539.72,121.26l29.19-95.44h1.12c40.79,0,59.13,13.85,59.13,37.43,0,33.31-35.93,58.01-89.45,58.01M1438.67,232.42l-5.24,16.84h98.43l5.24-16.84c-22.46,0-29.19-7.11-23.2-26.57l24.33-79.72,66.99,123.13h41.17l-69.99-119.02c46.03-5.24,88.7-28.82,88.7-68.49,0-37.43-31.81-55.77-96.56-55.77h-60.63l-5.24,16.84c20.58,0,32.56,5.24,25.45,26.2l-48.28,157.19c-5.24,16.84-13.85,26.2-41.17,26.2M1229.83,232.42l-5.24,16.84h194.99l26.95-65.5h-17.59c-16.84,34.81-37.05,44.54-78.97,44.54h-52.02l30.69-100.3h30.32c20.58,0,23.58,5.99,17.59,29.19l-2.62,10.1h17.22l29.19-94.69h-17.22l-3.37,9.73c-7.48,21.71-14.6,27.32-35.18,27.32h-30.32l25.45-82.34h49.4c29.19,0,36.68,8.61,36.3,40.05h17.22l9.73-61.38h-173.29l-5.24,16.84c24.33,0,31.06,7.11,25.45,26.2l-48.28,157.19c-5.61,19.09-16.84,26.2-41.17,26.2M971.96,232.42l-5.24,16.84h89.08l5.24-16.84c-24.33,0-31.07-7.11-25.45-26.2l48.28-157.19,86.08,200.23h11.23l61.38-200.23c5.99-19.09,16.84-26.2,41.17-26.2l5.24-16.84h-89.08l-5.24,16.84c24.33,0,31.44,7.11,25.45,26.2l-41.92,137.73L1100.34,5.99h-59.13l-5.24,16.84c24.33,0,31.06,7.11,25.45,26.2l-48.28,157.19c-5.99,19.09-16.84,26.2-41.17,26.2M863.8,252.63c23.21,0,49.78-7.11,74.48-22.08l19.09-61.75c6.36-20.59,15.72-24.7,34.06-24.7l5.24-16.84h-93.94l-5.24,16.84c20.96,1.5,29.94,3.74,29.94,16.84,0,5.24-1.5,13.1-3.74,20.58-10.1,34.81-29.19,51.27-55.02,51.27-39.3,0-59.88-38.92-59.88-83.09,0-63.62,42.29-127.25,99.18-127.25,30.69,0,51.27,18.34,56.51,57.64h17.22L1006.4,0h-8.23l-35.56,26.57c-11.98-14.6-33.31-24.7-60.26-24.7-71.11,0-131.74,68.12-131.74,146.34,0,58.39,33.68,104.42,93.19,104.42M626.89,232.42l-5.24,16.84h100.3l5.24-16.84c-24.33,0-31.06-7.11-25.45-26.2l48.28-157.19c5.61-19.09,16.84-26.2,41.17-26.2l5.24-16.84h-100.3l-5.24,16.84c24.33,0,31.06,7.11,25.45,26.2l-48.28,157.19c-5.61,19.09-16.84,26.2-41.17,26.2M548.67,253c43.41,0,75.23-32.94,75.23-68.12,0-23.58-8.98-44.91-37.8-67.74l-25.45-20.21c-18.34-14.6-23.2-25.83-23.2-39.3,0-20.59,15.34-35.93,40.79-35.93s46.41,16.47,50.15,58.39h16.09L666.56,0h-7.86l-33.31,23.95c-13.1-14.6-28.44-22.83-49.78-22.83-41.17,0-70.36,28.44-70.36,63.25,0,20.21,5.99,37.05,34.06,60.26l26.2,21.71c17.96,14.6,25.08,29.94,25.08,46.41,0,22.83-17.97,39.67-43.79,39.67-28.07,0-53.15-19.46-62.5-66.62h-16.47l-19.84,85.71h7.86l30.32-28.82c15.35,18.71,34.81,30.32,62.5,30.32M235.41,232.42l-5.24,16.84h194.99l26.95-65.5h-17.59c-16.84,34.81-37.05,44.54-78.97,44.54h-52.02l30.69-100.3h30.32c20.58,0,23.58,5.99,17.59,29.19l-2.62,10.1h17.22l29.19-94.69h-17.22l-3.37,9.73c-7.48,21.71-14.6,27.32-35.18,27.32h-30.32l25.45-82.34h49.4c29.19,0,36.68,8.61,36.3,40.05h17.22l9.73-61.38h-173.29l-5.24,16.84c24.33,0,31.06,7.11,25.45,26.2l-48.28,157.19c-5.61,19.09-16.84,26.2-41.17,26.2M73.36,229.05L135.11,26.2h1.12c49.78,0,86.08,19.46,86.08,76.72,0,68.12-52.77,126.13-133.99,126.13h-14.97ZM5.24,232.42l-5.24,16.84h90.57c97.31,0,168.05-60.63,168.05-147.83,0-62.5-45.66-95.44-123.13-95.44h-61.01l-5.24,16.84c23.21,0,31.07,5.99,25.08,26.2l-47.91,157.19c-5.24,17.59-14.97,26.2-41.17,26.2"/>
  <path class="st0" d="M1612.05,249.26h51.84l-5.24-16.84c-24.75-1.16-29.47-13.79-37.75-26.16l-13.53-23.08c-.13-.01-8.59-.8-8.59-.8,0,0,8.6,61.46,13.27,66.88Z"/>
</svg>