<?xml version="1.0" encoding="UTF-8"?>
<svg id="Calque_1" xmlns="http://www.w3.org/2000/svg" version="1.1" viewBox="0 0 707.73 247.02">
  <!-- Generator: Adobe Illustrator 29.2.1, SVG Export Plug-In . SVG Version: 2.1.0 Build 116)  -->
  <defs>
    <style>
      .st0 {
        fill: #1d1d1b;
      }
    </style>
  </defs>
  <path class="st0" d="M486.54,228.24l-5.24,16.84h104.05l5.24-16.84c-26.2,0-33.31-7.11-27.32-26.2l54.64-177.78h30.69c25.45,0,28.82,11.98,25.08,40.8h17.22l16.84-63.25h-197.99l-22.08,63.25h17.22c14.22-28.82,24.33-40.8,49.78-40.8h29.57l-54.64,177.78c-5.99,19.09-16.84,26.2-43.04,26.2M341.58,117.08l29.19-95.44h1.12c40.79,0,59.13,13.85,59.13,37.43,0,33.31-35.93,58.01-89.45,58.01M240.52,228.24l-5.24,16.84h98.43l5.24-16.84c-22.46,0-29.19-7.11-23.2-26.57l24.33-79.72,66.99,123.13h41.17l-69.99-119.02c46.04-5.24,88.7-28.82,88.7-68.49,0-37.43-31.81-55.77-96.56-55.77h-60.63l-5.24,16.84c20.58,0,32.56,5.24,25.45,26.2l-48.28,157.19c-5.24,16.84-13.85,26.2-41.17,26.2M109.54,138.41l61.38-93.94,4.49,93.94h-65.87ZM1,245.08h74.48l4.87-15.72c-23.2,0-25.45-7.86-10.85-29.94l27.32-41.54h79.34l1.87,39.67c1.12,23.2-9.73,30.69-27.32,31.81l-4.86,15.72h82.34l5.24-16.84c-13.1,0-20.21-7.86-21.71-32.93L198.99-.06h-19.84L47.78,193.43c-17.22,24.7-29.19,34.81-41.54,34.81l-5.24,16.84Z"/>
  <path class="st0" d="M389.96,200.78c1.51.44,2.79,1.51,3.17,3.29,1.3,6.13,2.67,12.25,4.05,18.37.7,2.03,1.39,4.08,2.08,6.12,5.07,4.87,8.64,10.93,13.31,16.34h51.84l-5.24-16.84c-24.75-1.16-29.47-13.79-37.75-26.16l-6-8c-.13-.01-.1.03-.23,0-9.7-1.78-19.45-3.16-29.23-4.28,1.48,3.64,2.77,7.39,4,11.15Z"/>
</svg>