<?xml version="1.0" encoding="UTF-8"?>
<svg id="Calque_1" xmlns="http://www.w3.org/2000/svg" version="1.1" viewBox="0 0 272.09 247.02">
  <!-- Generator: Adobe Illustrator 29.2.1, SVG Export Plug-In . SVG Version: 2.1.0 Build 116)  -->
  <defs>
    <style>
      .st0 {
        fill: #1d1d1b;
      }
    </style>
  </defs>
  <path class="st0" d="M105.17,58.01c0-19.46,8.98-40.05,28.07-40.05,10.48,0,18.34,9.36,18.34,22.08,0,22.46-17.96,35.93-41.54,47.16-2.99-10.48-4.87-20.21-4.87-29.19M35.18,175.9c0-32.19,17.59-54.27,46.78-66.62,8.23,24.7,23.2,51.27,41.92,81.96-20.21,20.21-35.56,26.57-50.15,26.57-23.58,0-38.55-16.84-38.55-41.92M56.89,247.02c29.94,0,50.15-14.22,75.6-41.54,14.6,22.08,31.44,39.67,53.52,39.67s46.41-18.34,63.25-48.28l-10.48-6.36c-9.36,17.59-22.83,26.57-34.81,26.57-14.6,0-25.45-11.6-44.16-36.68l-1.5-2.25c16.47-17.97,35.93-41.54,57.26-64.37,25.45-26.95,37.05-30.32,51.27-30.32l5.24-15.72h-85.33l-5.61,15.72h8.98c9.36,0,12.35,2.99,12.73,7.49.37,10.48-18.34,32.93-30.69,47.53l-23.95,25.45c-14.22-20.96-26.57-44.16-34.43-65.5,31.44-12.35,60.26-31.81,60.26-61.38,0-20.21-15.72-37.05-39.67-37.05-35.93,0-59.51,33.68-59.51,71.11,0,8.98,1.5,18.34,3.74,28.07l-1.12.37C33.68,110.78,0,140.72,0,186.76c0,31.81,20.96,60.26,56.89,60.26"/>
</svg>