<svg xmlns="http://www.w3.org/2000/svg" id="Calque_1" version="1.1" viewBox="0 0 1600.4 253.76">
  <!-- Generator: Adobe Illustrator 29.2.1, SVG Export Plug-In . SVG Version: 2.1.0 Build 116)  -->
  <defs>
    <style>
      .st0 {
        fill: #1d1d1b;
      }
    </style>
  </defs>
  <path class="st0" d="M1475.03,121.26l29.19-95.44h1.12c40.8,0,59.13,13.85,59.13,37.43,0,33.31-35.93,58.01-89.45,58.01M1373.97,232.42l-5.24,16.84h98.43l5.24-16.84c-22.46,0-29.19-7.11-23.2-26.57l24.33-79.72,66.99,123.13h41.17l-69.99-119.02c46.03-5.24,88.7-28.82,88.7-68.49,0-37.43-31.81-55.77-96.56-55.77h-60.63l-5.24,16.84c20.58,0,32.56,5.24,25.45,26.2l-48.28,157.19c-5.24,16.84-13.85,26.2-41.17,26.2M1231.16,163.93c0-65.87,37.8-141.85,92.07-141.85,34.06,0,49.4,29.57,49.4,70.74,0,65.12-38.17,141.1-93.19,141.1-34.06,0-48.28-29.57-48.28-69.99M1279.44,253.75c67.74,0,130.24-76.72,130.24-153.82,0-58.39-35.18-97.68-86.45-97.68-66.24,0-128.75,74.1-128.75,153.45,0,59.13,34.43,98.06,84.96,98.06M1001.74,232.42l-5.24,16.84h104.05l5.24-16.84c-26.2,0-33.31-7.11-27.32-26.2l54.64-177.78h30.69c25.45,0,28.82,11.98,25.08,40.8h17.22l16.84-63.25h-197.99l-22.08,63.25h17.22c14.22-28.82,24.33-40.8,49.78-40.8h29.57l-54.64,177.78c-5.99,19.09-16.84,26.2-43.04,26.2M861.77,253c39.67,0,76.35-20.96,106.67-72.98l-11.6-8.61c-23.95,37.05-51.27,53.52-78.22,53.52-41.92,0-63.62-34.43-63.62-76.72,0-62.13,41.54-125.75,93.19-125.75,34.06,0,47.91,20.21,52.4,61.38h17.22L1003.61,0h-8.23l-35.18,26.57c-11.6-14.97-29.57-24.7-52.02-24.7-69.61,0-129.87,78.97-129.87,156.82,0,57.64,32.94,94.32,83.46,94.32M543.4,232.42l-5.24,16.84h194.99l26.95-65.5h-17.59c-16.84,34.81-37.05,44.54-78.97,44.54h-52.02l30.69-100.3h30.32c20.58,0,23.58,5.99,17.59,29.19l-2.62,10.1h17.22l29.19-94.69h-17.22l-3.37,9.73c-7.49,21.71-14.6,27.32-35.18,27.32h-30.32l25.45-82.34h49.4c29.19,0,36.68,8.61,36.3,40.05h17.22l9.73-61.38h-173.28l-5.24,16.84c24.33,0,31.07,7.11,25.45,26.2l-48.28,157.19c-5.61,19.09-16.84,26.2-41.17,26.2M438.99,121.26l29.19-95.44h1.12c40.79,0,59.13,13.85,59.13,37.43,0,33.31-35.93,58.01-89.45,58.01M337.94,232.42l-5.24,16.84h98.43l5.24-16.84c-22.46,0-29.19-7.11-23.2-26.57l24.33-79.72,66.99,123.13h41.17l-69.99-119.02c46.04-5.24,88.7-28.82,88.7-68.49,0-37.43-31.81-55.77-96.56-55.77h-60.63l-5.24,16.84c20.58,0,32.56,5.24,25.45,26.2l-48.28,157.19c-5.24,16.84-13.85,26.2-41.17,26.2M227.41,232.42l-5.24,16.84h100.3l5.24-16.84c-24.33,0-31.06-7.11-25.45-26.2l48.28-157.19c5.61-19.09,16.84-26.2,41.17-26.2l5.24-16.84h-100.3l-5.24,16.84c24.33,0,31.06,7.11,25.45,26.2l-48.28,157.19c-5.61,19.09-16.84,26.2-41.17,26.2M73.36,229.05L135.11,26.2h1.12c49.78,0,86.08,19.46,86.08,76.72,0,68.12-52.77,126.13-133.99,126.13h-14.97ZM5.24,232.42l-5.24,16.84h90.57c97.31,0,168.05-60.63,168.05-147.83,0-62.5-45.66-95.44-123.13-95.44h-61.01l-5.24,16.84c23.21,0,31.07,5.99,25.08,26.2l-47.91,157.19c-5.24,17.59-14.97,26.2-41.17,26.2"/>
  <path class="st0" d="M1547.34,249.26h51.84l-5.24-16.84c-24.75-1.16-29.47-13.79-37.75-26.16l-13.53-23.08c-.13-.01-8.59-.8-8.59-.8,0,0,8.6,61.46,13.27,66.88Z"/>
  <path class="st0" d="M511.06,249.26h51.84l-5.99-17.8c-24.75-1.16-28.71-12.83-37-25.2l-13.53-23.08c-.13-.01-8.59-.8-8.59-.8,0,0,8.6,61.46,13.27,66.88Z"/>
</svg>