<svg xmlns="http://www.w3.org/2000/svg" id="Calque_1" version="1.1" viewBox="-0.5 -0.5 1463.239990234375 254.010009765625">   <!-- Generator: Adobe Illustrator 29.2.1, SVG Export Plug-In . SVG Version: 2.1.0 Build 116)  -->   <defs>     <style>       .st0 {         fill: #1d1d1b;       }     </style>   </defs>   <path class="st0" d="M1320.39,253c39.67,0,76.35-20.96,106.67-72.98l-11.6-8.61c-23.95,37.05-51.28,53.52-78.22,53.52-41.92,0-63.62-34.43-63.62-76.72,0-62.13,41.54-125.75,93.19-125.75,34.06,0,47.91,20.21,52.4,61.38h17.22L1462.24,0h-8.23l-35.18,26.57c-11.6-14.97-29.57-24.7-52.02-24.7-69.61,0-129.87,78.97-129.87,156.82,0,57.64,32.93,94.32,83.46,94.32M1095.09,232.42l-5.24,16.84h100.3l5.24-16.84c-24.33,0-31.06-7.11-25.45-26.2l48.28-157.19c5.61-19.09,16.84-26.2,41.17-26.2l5.24-16.84h-100.3l-5.24,16.84c24.33,0,31.06,7.11,25.45,26.2l-48.28,157.19c-5.61,19.09-16.84,26.2-41.17,26.2M835.35,232.42l-5.24,16.84h100.3l5.24-17.22c-24.33,0-31.06-7.11-25.08-26.2l22.08-72.23h111.53l-22.46,72.61c-5.99,19.09-16.84,26.2-41.17,26.2l-5.24,16.84h100.3l5.24-17.22c-24.33,0-31.06-7.11-25.08-26.2l47.91-156.82c5.99-19.09,16.84-26.2,41.17-26.2l5.24-16.84h-100.3l-5.24,16.84c24.33,0,31.44,7.11,25.45,26.2l-19.46,63.25h-111.53l19.46-63.25c5.99-19.09,16.84-26.2,41.17-26.2l5.24-16.84h-100.3l-5.24,16.84c24.33,0,31.06,7.11,25.45,26.2l-48.28,157.19c-5.99,19.09-16.84,26.2-41.17,26.2M749.27,132.49l32.56-106.29h7.48c33.68,0,52.77,16.09,52.77,41.92,0,41.92-35.56,64.37-91.7,64.37h-1.12ZM651.96,232.42l-5.24,16.84h104.05l5.24-16.84c-25.82,0-34.81-5.24-29.19-26.2l17.22-56.89h5.61c62.5,0,128.37-25.45,128.37-82.34,0-39.3-34.43-61.01-96.19-61.01h-61.01l-5.24,16.84c23.58,0,31.44,5.99,25.82,26.2l-48.28,157.19c-5.61,19.09-16.84,26.2-41.17,26.2M520.97,142.6l61.38-93.94,4.49,93.94h-65.87ZM412.43,249.26h74.48l4.87-15.72c-23.2,0-25.45-7.86-10.85-29.94l27.32-41.54h79.34l1.87,39.67c1.12,23.2-9.73,30.69-27.32,31.81l-4.87,15.72h82.34l5.24-16.84c-13.1,0-20.21-7.86-21.71-32.94l-12.72-195.37h-19.84l-131.37,193.5c-17.22,24.7-29.19,34.81-41.54,34.81l-5.24,16.84ZM309.89,121.26l29.19-95.44h1.12c40.8,0,59.13,13.85,59.13,37.43,0,33.31-35.93,58.01-89.45,58.01M208.84,232.42l-5.24,16.84h98.43l5.24-16.84c-22.46,0-29.19-7.11-23.2-26.57l24.33-79.72,66.99,123.13h41.17l-69.99-119.02c46.04-5.24,88.7-28.82,88.7-68.49,0-37.43-31.81-55.77-96.56-55.77h-60.63l-5.24,16.84c20.58,0,32.56,5.24,25.45,26.2l-48.28,157.19c-5.24,16.84-13.85,26.2-41.17,26.2M93.19,252.63c23.2,0,49.78-7.11,74.48-22.08l19.09-61.75c6.36-20.58,15.72-24.7,34.06-24.7l5.24-16.84h-93.94l-5.24,16.84c20.96,1.5,29.94,3.74,29.94,16.84,0,5.24-1.5,13.1-3.74,20.58-10.11,34.81-29.19,51.28-55.02,51.28-39.3,0-59.88-38.92-59.88-83.09,0-63.62,42.29-127.25,99.18-127.25,30.69,0,51.28,18.34,56.51,57.64h17.22L235.79,0h-8.23l-35.56,26.57c-11.98-14.6-33.31-24.7-60.26-24.7C60.63,1.87,0,69.99,0,148.21c0,58.39,33.68,104.42,93.19,104.42" fill="black"/>   <path class="st0" d="M382.63,248.94h51.84l-5.24-16.84c-24.75-1.16-29.47-13.79-37.75-26.16l-14-23c-.13-.01-8.12-.88-8.12-.88,0,0,8.6,61.46,13.27,66.88Z" fill="white"/> </svg>